<svg width="102" height="101" viewBox="0 0 102 101" fill="none" xmlns="http://www.w3.org/2000/svg">
<path d="M82.7252 88.0255C82.7252 88.0255 82.3505 88.5771 81.9085 88.1352C80.9808 87.2074 79.2569 85.4835 78.7265 84.9532C77.3123 86.3674 74.469 83.5538 74.469 83.5538L75.8981 82.1247C75.8981 82.1247 75.4116 81.6383 74.4839 80.7105C71.4348 81.9041 59.5017 81.2847 54.1984 75.9814C51.7235 73.5065 50.8835 72.6665 50.4423 72.2252C50.001 71.784 50.4437 70.8124 50.6629 69.6174C50.0887 69.0433 27.1961 46.1507 26.4006 45.3552C25.6051 44.5597 22.8722 45.0087 22.0321 44.1687C21.1921 43.3286 15.9842 38.3867 13.9068 35.6021C11.8293 32.8175 10.2093 30.3122 12.1977 28.3238C14.1861 26.3354 16.6659 25.325 16.6659 25.325C16.6659 25.325 15.5727 22.9491 19.4392 19.0826C23.3056 15.2162 25.818 16.1729 25.818 16.1729C25.818 16.1729 26.798 13.6683 28.7871 11.6792C30.7755 9.69085 33.2942 11.3271 36.0781 13.4039C38.862 15.4806 43.9885 20.5195 44.8278 21.3588C45.6672 22.1982 45.4041 24.7607 46.1996 25.5562C46.9951 26.3517 69.8877 49.2443 70.4619 49.8184C71.6569 49.5992 72.627 49.1552 73.0697 49.5978C73.5123 50.0405 74.351 50.8791 76.8258 53.354C82.1291 58.6573 82.7478 70.5897 81.555 73.6395C82.4827 74.5672 82.9692 75.0537 82.9692 75.0537L84.3367 73.6861C84.3367 73.6861 87.2118 76.4679 85.7976 77.8821C86.3279 78.4124 88.0519 80.1364 88.9796 81.0641C89.3402 81.4247 88.8212 81.9296 88.8212 81.9296L82.7252 88.0255Z" fill="white"/>
<path fill-rule="evenodd" clip-rule="evenodd" d="M41.7874 21.4976L43.0621 11.8043L32.8601 1.60224L26.1303 16.3375C13.144 14.4968 14.9727 12.6732 16.813 25.6548L2.07774 32.3846L12.2798 42.5866L21.9731 41.3119C20.3539 35.0016 21.0922 29.1394 25.3536 24.8781C29.6149 20.6167 35.4771 19.8784 41.7874 21.4976Z" fill="white"/>
</svg>
